<?xml version="1.0" encoding="utf-8"?>
<!-- Generator: Adobe Illustrator 22.0.0, SVG Export Plug-In . SVG Version: 6.00 Build 0)  -->
<svg version="1.0" id="Layer_1" xmlns="http://www.w3.org/2000/svg" xmlns:xlink="http://www.w3.org/1999/xlink" x="0px" y="0px"
	 viewBox="0 0 4000 3000" style="enable-background:new 0 0 4000 3000;" xml:space="preserve">
<style type="text/css">
	.st0{fill:#1B75BC;}
</style>
<g>
	<path class="st0" d="M1975.9,1445.4c0,0-0.2,0.2-0.4,0.2C1975.4,1445.6,1980.1,1449.2,1975.9,1445.4z"/>
	<path class="st0" d="M1988.8,33.4C1178.9,33.4,522.3,690,522.3,1500s656.6,1466.6,1466.6,1466.6S3455.4,2310,3455.4,1500
		S2798.8,33.4,1988.8,33.4z M2539.7,1239.1c-86,100.6-214.4,130.9-309.2,73c-61.8,66.1-123.2,132.2-184.8,198.3
		c-5.4-5,564.9,525.8,847.3,788.5c30.1,27.4,40.4,94.6,1.4,133c-38.5,38.9-105.8,28.7-133-1.4c-252.5-271.2-505-542.3-757.3-813.6
		l-28.9-30.6c-264,283.5-528,567.2-792.1,850.9c-27.2,30.1-94.4,40.4-133,1.4c-38.9-38.5-28.7-105.8,1.4-133.3
		c284.5-264.6,569-529.5,853.6-794.1c0,0-137.9-148.6-197.1-212.4c-139.1,99.6-345,61.7-468.6-91.2
		c-133.2-161.1-248.1-449.6-136.8-567.6c118-111.3,406.3,3.8,567.6,136.8c152.7,123.8,190.8,329.5,91,468.6
		c71.6,66.5,143.1,133,214.7,199.8c66.9-62.3,133.9-124.7,200.8-187c-56.5-96.6-18.9-232,73-309.4
		c105.2-88.3,495.6-423.4,506.3-412.8c10.5,10.4-263.4,269.2-446.2,452.5l30.4,30.5c195.4-171.1,470.9-427.8,481.6-417.4
		c10.4,10.7-254.8,277.6-431.8,467.4l30.4,30.1c189.3-177,456.5-442.2,466.9-432c10.5,10.7-246.2,286.4-417.4,481.6l30.4,30.2
		c183.3-182.8,441.8-456.7,452.5-446.2c10.4,10.4-412.1,505.8-412.8,506.5C2539.9,1239.3,2629.6,1133.9,2539.7,1239.1z"/>
</g>
</svg>
